<mxfile host="app.diagrams.net" agent="Mozilla/5.0 (X11; Ubuntu; Linux x86_64; rv:135.0) Gecko/20100101 Firefox/135.0" version="26.0.15">
  <diagram id="C5RBs43oDa-KdzZeNtuy" name="Page-1">
    <mxGraphModel dx="1137" dy="663" grid="1" gridSize="10" guides="1" tooltips="1" connect="1" arrows="1" fold="1" page="1" pageScale="1" pageWidth="827" pageHeight="1169" math="0" shadow="0">
      <root>
        <mxCell id="WIyWlLk6GJQsqaUBKTNV-0" />
        <mxCell id="WIyWlLk6GJQsqaUBKTNV-1" parent="WIyWlLk6GJQsqaUBKTNV-0" />
        <mxCell id="HwAbFmR5U7R3NCpAnwpL-32" style="edgeStyle=orthogonalEdgeStyle;rounded=0;orthogonalLoop=1;jettySize=auto;html=1;entryX=0.5;entryY=0;entryDx=0;entryDy=0;" edge="1" parent="WIyWlLk6GJQsqaUBKTNV-1" source="WIyWlLk6GJQsqaUBKTNV-3" target="HwAbFmR5U7R3NCpAnwpL-0">
          <mxGeometry relative="1" as="geometry" />
        </mxCell>
        <mxCell id="WIyWlLk6GJQsqaUBKTNV-3" value="Inicio" style="rounded=1;whiteSpace=wrap;html=1;fontSize=12;glass=0;strokeWidth=1;shadow=0;arcSize=50;" parent="WIyWlLk6GJQsqaUBKTNV-1" vertex="1">
          <mxGeometry x="137.5" width="120" height="40" as="geometry" />
        </mxCell>
        <mxCell id="WIyWlLk6GJQsqaUBKTNV-11" value="Fin" style="rounded=1;whiteSpace=wrap;html=1;fontSize=12;glass=0;strokeWidth=1;shadow=0;arcSize=50;" parent="WIyWlLk6GJQsqaUBKTNV-1" vertex="1">
          <mxGeometry x="137.48000000000002" y="855" width="120" height="40" as="geometry" />
        </mxCell>
        <mxCell id="HwAbFmR5U7R3NCpAnwpL-30" style="edgeStyle=orthogonalEdgeStyle;rounded=0;orthogonalLoop=1;jettySize=auto;html=1;entryX=0.5;entryY=0;entryDx=0;entryDy=0;" edge="1" parent="WIyWlLk6GJQsqaUBKTNV-1" source="HwAbFmR5U7R3NCpAnwpL-0" target="HwAbFmR5U7R3NCpAnwpL-9">
          <mxGeometry relative="1" as="geometry" />
        </mxCell>
        <mxCell id="HwAbFmR5U7R3NCpAnwpL-0" value="&lt;div&gt;Objetos personales:&lt;/div&gt;&lt;div&gt;(celular, reloj, audífonos)&lt;/div&gt;&lt;div&gt;Dinero&lt;/div&gt;" style="shape=parallelogram;perimeter=parallelogramPerimeter;whiteSpace=wrap;html=1;fixedSize=1;rounded=0;" vertex="1" parent="WIyWlLk6GJQsqaUBKTNV-1">
          <mxGeometry x="115.60000000000001" y="60" width="163.77" height="50" as="geometry" />
        </mxCell>
        <mxCell id="HwAbFmR5U7R3NCpAnwpL-37" style="edgeStyle=orthogonalEdgeStyle;rounded=0;orthogonalLoop=1;jettySize=auto;html=1;entryX=0.5;entryY=0;entryDx=0;entryDy=0;" edge="1" parent="WIyWlLk6GJQsqaUBKTNV-1" source="HwAbFmR5U7R3NCpAnwpL-9" target="HwAbFmR5U7R3NCpAnwpL-35">
          <mxGeometry relative="1" as="geometry" />
        </mxCell>
        <mxCell id="HwAbFmR5U7R3NCpAnwpL-9" value="Levantarse" style="whiteSpace=wrap;html=1;" vertex="1" parent="WIyWlLk6GJQsqaUBKTNV-1">
          <mxGeometry x="156.25" y="140" width="82.5" height="30" as="geometry" />
        </mxCell>
        <mxCell id="HwAbFmR5U7R3NCpAnwpL-26" style="edgeStyle=orthogonalEdgeStyle;rounded=0;orthogonalLoop=1;jettySize=auto;html=1;entryX=0.5;entryY=0;entryDx=0;entryDy=0;" edge="1" parent="WIyWlLk6GJQsqaUBKTNV-1" source="HwAbFmR5U7R3NCpAnwpL-10" target="HwAbFmR5U7R3NCpAnwpL-11">
          <mxGeometry relative="1" as="geometry" />
        </mxCell>
        <mxCell id="HwAbFmR5U7R3NCpAnwpL-10" value="Ducharse&lt;br&gt;y aseo personal" style="whiteSpace=wrap;html=1;" vertex="1" parent="WIyWlLk6GJQsqaUBKTNV-1">
          <mxGeometry x="150.63000000000002" y="470" width="93.75" height="40" as="geometry" />
        </mxCell>
        <mxCell id="HwAbFmR5U7R3NCpAnwpL-16" style="edgeStyle=orthogonalEdgeStyle;rounded=0;orthogonalLoop=1;jettySize=auto;html=1;" edge="1" parent="WIyWlLk6GJQsqaUBKTNV-1" source="HwAbFmR5U7R3NCpAnwpL-11" target="HwAbFmR5U7R3NCpAnwpL-12">
          <mxGeometry relative="1" as="geometry" />
        </mxCell>
        <mxCell id="HwAbFmR5U7R3NCpAnwpL-11" value="Vestirse" style="whiteSpace=wrap;html=1;" vertex="1" parent="WIyWlLk6GJQsqaUBKTNV-1">
          <mxGeometry x="156.22000000000003" y="585" width="82.5" height="30" as="geometry" />
        </mxCell>
        <mxCell id="HwAbFmR5U7R3NCpAnwpL-18" style="edgeStyle=orthogonalEdgeStyle;rounded=0;orthogonalLoop=1;jettySize=auto;html=1;entryX=0.5;entryY=0;entryDx=0;entryDy=0;" edge="1" parent="WIyWlLk6GJQsqaUBKTNV-1" source="HwAbFmR5U7R3NCpAnwpL-12" target="HwAbFmR5U7R3NCpAnwpL-13">
          <mxGeometry relative="1" as="geometry" />
        </mxCell>
        <mxCell id="HwAbFmR5U7R3NCpAnwpL-12" value="Llevar Objetos" style="whiteSpace=wrap;html=1;" vertex="1" parent="WIyWlLk6GJQsqaUBKTNV-1">
          <mxGeometry x="156.22000000000003" y="635" width="82.5" height="30" as="geometry" />
        </mxCell>
        <mxCell id="HwAbFmR5U7R3NCpAnwpL-27" style="edgeStyle=orthogonalEdgeStyle;rounded=0;orthogonalLoop=1;jettySize=auto;html=1;" edge="1" parent="WIyWlLk6GJQsqaUBKTNV-1" source="HwAbFmR5U7R3NCpAnwpL-13" target="HwAbFmR5U7R3NCpAnwpL-22">
          <mxGeometry relative="1" as="geometry" />
        </mxCell>
        <mxCell id="HwAbFmR5U7R3NCpAnwpL-13" value="&lt;div&gt;Salir y &lt;br&gt;&lt;/div&gt;&lt;div&gt;tomar transporte&lt;/div&gt;" style="whiteSpace=wrap;html=1;" vertex="1" parent="WIyWlLk6GJQsqaUBKTNV-1">
          <mxGeometry x="148.10000000000002" y="685" width="98.75" height="50" as="geometry" />
        </mxCell>
        <mxCell id="HwAbFmR5U7R3NCpAnwpL-25" style="edgeStyle=orthogonalEdgeStyle;rounded=0;orthogonalLoop=1;jettySize=auto;html=1;" edge="1" parent="WIyWlLk6GJQsqaUBKTNV-1" source="HwAbFmR5U7R3NCpAnwpL-20" target="HwAbFmR5U7R3NCpAnwpL-10">
          <mxGeometry relative="1" as="geometry" />
        </mxCell>
        <mxCell id="HwAbFmR5U7R3NCpAnwpL-20" value="Desayunar" style="whiteSpace=wrap;html=1;" vertex="1" parent="WIyWlLk6GJQsqaUBKTNV-1">
          <mxGeometry x="156.23000000000002" y="350" width="82.5" height="30" as="geometry" />
        </mxCell>
        <mxCell id="HwAbFmR5U7R3NCpAnwpL-28" style="edgeStyle=orthogonalEdgeStyle;rounded=0;orthogonalLoop=1;jettySize=auto;html=1;" edge="1" parent="WIyWlLk6GJQsqaUBKTNV-1" source="HwAbFmR5U7R3NCpAnwpL-22" target="HwAbFmR5U7R3NCpAnwpL-23">
          <mxGeometry relative="1" as="geometry" />
        </mxCell>
        <mxCell id="HwAbFmR5U7R3NCpAnwpL-22" value="Estudiar" style="whiteSpace=wrap;html=1;" vertex="1" parent="WIyWlLk6GJQsqaUBKTNV-1">
          <mxGeometry x="156.22000000000003" y="755" width="82.5" height="30" as="geometry" />
        </mxCell>
        <mxCell id="HwAbFmR5U7R3NCpAnwpL-29" style="edgeStyle=orthogonalEdgeStyle;rounded=0;orthogonalLoop=1;jettySize=auto;html=1;" edge="1" parent="WIyWlLk6GJQsqaUBKTNV-1" source="HwAbFmR5U7R3NCpAnwpL-23" target="WIyWlLk6GJQsqaUBKTNV-11">
          <mxGeometry relative="1" as="geometry" />
        </mxCell>
        <mxCell id="HwAbFmR5U7R3NCpAnwpL-23" value="Regresar a casa" style="whiteSpace=wrap;html=1;" vertex="1" parent="WIyWlLk6GJQsqaUBKTNV-1">
          <mxGeometry x="156.23000000000002" y="805" width="82.5" height="30" as="geometry" />
        </mxCell>
        <mxCell id="HwAbFmR5U7R3NCpAnwpL-31" value="Rutina Diaria para asistir a Riwi" style="text;html=1;align=center;verticalAlign=middle;resizable=0;points=[];autosize=1;strokeColor=none;fillColor=none;" vertex="1" parent="WIyWlLk6GJQsqaUBKTNV-1">
          <mxGeometry x="257.51" y="5" width="190" height="30" as="geometry" />
        </mxCell>
        <mxCell id="HwAbFmR5U7R3NCpAnwpL-38" style="edgeStyle=orthogonalEdgeStyle;rounded=0;orthogonalLoop=1;jettySize=auto;html=1;" edge="1" parent="WIyWlLk6GJQsqaUBKTNV-1" source="HwAbFmR5U7R3NCpAnwpL-35" target="HwAbFmR5U7R3NCpAnwpL-36">
          <mxGeometry relative="1" as="geometry" />
        </mxCell>
        <mxCell id="HwAbFmR5U7R3NCpAnwpL-35" value="Tomar agua" style="whiteSpace=wrap;html=1;" vertex="1" parent="WIyWlLk6GJQsqaUBKTNV-1">
          <mxGeometry x="156.23" y="200" width="82.5" height="30" as="geometry" />
        </mxCell>
        <mxCell id="HwAbFmR5U7R3NCpAnwpL-39" style="edgeStyle=orthogonalEdgeStyle;rounded=0;orthogonalLoop=1;jettySize=auto;html=1;entryX=0.5;entryY=0;entryDx=0;entryDy=0;" edge="1" parent="WIyWlLk6GJQsqaUBKTNV-1" source="HwAbFmR5U7R3NCpAnwpL-36" target="HwAbFmR5U7R3NCpAnwpL-20">
          <mxGeometry relative="1" as="geometry" />
        </mxCell>
        <mxCell id="HwAbFmR5U7R3NCpAnwpL-36" value="Ir al comedor" style="whiteSpace=wrap;html=1;" vertex="1" parent="WIyWlLk6GJQsqaUBKTNV-1">
          <mxGeometry x="156.23000000000002" y="300" width="82.5" height="30" as="geometry" />
        </mxCell>
        <mxCell id="HwAbFmR5U7R3NCpAnwpL-40" value="Ropa" style="shape=parallelogram;perimeter=parallelogramPerimeter;whiteSpace=wrap;html=1;fixedSize=1;" vertex="1" parent="WIyWlLk6GJQsqaUBKTNV-1">
          <mxGeometry x="148.1" y="530" width="100" height="30" as="geometry" />
        </mxCell>
        <mxCell id="HwAbFmR5U7R3NCpAnwpL-41" value="Comida" style="shape=parallelogram;perimeter=parallelogramPerimeter;whiteSpace=wrap;html=1;fixedSize=1;" vertex="1" parent="WIyWlLk6GJQsqaUBKTNV-1">
          <mxGeometry x="147.5" y="250" width="100" height="30" as="geometry" />
        </mxCell>
        <mxCell id="HwAbFmR5U7R3NCpAnwpL-43" value="&lt;div&gt;Implementos de aseo:&lt;/div&gt;&lt;div&gt;(Pasta de dientes, cepillo, toalla, jabón, shampoo)&lt;/div&gt;" style="shape=parallelogram;perimeter=parallelogramPerimeter;whiteSpace=wrap;html=1;fixedSize=1;" vertex="1" parent="WIyWlLk6GJQsqaUBKTNV-1">
          <mxGeometry x="115.60000000000001" y="400" width="170" height="50" as="geometry" />
        </mxCell>
      </root>
    </mxGraphModel>
  </diagram>
</mxfile>
